{"title":"Mandali Tumchyasathi Kay Pan 2013 Marathi 1080p HD x264 AC [TMB]","uid":15547463,"size":1724329654,"categoryP":"video","categoryS":"movies","magnet":"?xt=urn:btih:3bd54d6dbfc5f123c1f65fc033b22e5a0532798f&amp;dn=Mandali+Tumchyasathi+Kay+Pan+2013+Marathi+1080p+HD+x264+AC+%5BTMB%5D&amp;tr=udp%3A%2F%2Ftracker.leechers-paradise.org%3A6969&amp;tr=udp%3A%2F%2Fzer0day.ch%3A1337&amp;tr=udp%3A%2F%2Fopen.demonii.com%3A1337&amp;tr=udp%3A%2F%2Ftracker.coppersurfer.tk%3A6969&amp;tr=udp%3A%2F%2Fexodus.desync.com%3A6969","seeders":1,"leechers":0,"uploader":"Manoj_vb","files":1,"time":1470989602,"description":"http://i1306.photobucket.com/albums/s570/zyx55e/44_zpsc46e809d.gif\r\n \nhttp://s25.postimg.org/6x8qe9khr/mandli_tumchyasathi_kay_pan2.jpg\r\n \nhttp://s25.postimg.org/cccv1hmnz/vlcsnap_0196_06_14_17h22m23s468.png\r\n \nhttp://s25.postimg.org/6j2t0xb0f/vlcsnap_0678_10_30_08h05m12s337.png\r\n \nhttp://s25.postimg.org/q4r9x4dfj/vlcsnap_1575_08_10_22h15m55s580.png\r\n \nhttp://s25.postimg.org/be13cxypr/vlcsnap_3427_08_18_10h54m51s718.png\r\n \nhttp://s25.postimg.org/6ye2txwxr/vlcsnap_4921_11_15_05h16m35s857.png\r\n \nhttp://s25.postimg.org/kqshpknpb/vlcsnap_4943_06_16_10h38m08s518.png\r\n \nhttp://s25.postimg.org/pujrdrytb/vlcsnap_5966_08_03_15h17m54s458.png\r\n \nhttp://s25.postimg.org/fe88p6p6n/vlcsnap_6248_04_05_16h23m01s930.png\r\n \nhttp://s25.postimg.org/flvvlp05b/vlcsnap_7746_05_03_17h04m41s638.png\r\n \nhttp://s25.postimg.org/qpawdjw1r/vlcsnap_8000_05_14_03h36m10s445.png\r\n \nhttp://s25.postimg.org/mew8hyqyn/vlcsnap_8346_09_12_06h53m12s422.png\r\n \nhttp://i1306.photobucket.com/albums/s570/zyx55e/oie_11162011MOJeDGQI_zpsc25b2b81.gif\r\n\r\nGeneral\r\nComplete name               : Mandali Tumchyasathi Kay Pan 2013 1080p Untouched WebHD x264 AAC [TMB].mp4\r\nFormat                      : MPEG-4\r\nFormat profile              : Base Media\r\nCodec ID                    : isom (isom/iso2/avc1/mp41)\r\nFile size                   : 1.61 GiB\r\nDuration                    : 1h 48mn\r\nOverall bit rate mode       : Variable\r\nOverall bit rate            : 2 125 Kbps\r\n\r\nVideo\r\nFormat                      : AVC\r\nFormat/Info                 : Advanced Video Codec\r\nFormat profile              :   \r\nFormat settings, CABAC      : Yes\r\nFormat settings, ReFrames   : 3 frames\r\nCodec ID                    : avc1\r\nCodec ID/Info               : Advanced Video Coding\r\nDuration                    : 1h 48mn\r\nBit rate                    : 1 996 Kbps\r\nWidth                       : 1 920 pixels\r\nHeight                      : 1 080 pixels\r\nDisplay aspect ratio        : 16:9\r\nFrame rate mode             : Constant\r\nFrame rate                  : 25.000 fps\r\nColor space                 : YUV\r\nChroma subsampling          : 4:2:0\r\nBit depth                   : 8 bits\r\nScan type                   : Progressive\r\nBits/(Pixel*Frame)          : 0.039\r\nStream size                 : 1.51 GiB (94%)\r\n\r\nAudio\r\nFormat                      : AAC\r\nFormat/Info                 : Advanced Audio Codec\r\nFormat profile              : LC\r\nCodec ID                    : 40\r\nDuration                    : 1h 48mn\r\nBit rate mode               : Variable\r\nBit rate                    : 126 Kbps\r\nChannel(s)                  : 2 channels\r\nChannel positions           : Front: L R\r\nSampling rate               : 44.1 KHz\r\nFrame rate                  : 43.066 fps (1024 spf)\r\nCompression mode            : Lossy\r\nStream size                 : 97.2 MiB (6%)\r\n\r\n\r\nShared by Manojvb\r\n\r\nSeeding 24x7... Extreme Seeding...\r\n\r\n \nhttp://i1306.photobucket.com/albums/s570/zyx55e/oie_1117625zVIGKvnK_zpsc8b6e055.gif","torrent":{"xt":"urn:btih:3bd54d6dbfc5f123c1f65fc033b22e5a0532798f","amp;dn":"Mandali+Tumchyasathi+Kay+Pan+2013+Marathi+1080p+HD+x264+AC+%5BTMB%5D","amp;tr":["udp%3A%2F%2Ftracker.leechers-paradise.org%3A6969","udp%3A%2F%2Fzer0day.ch%3A1337","udp%3A%2F%2Fopen.demonii.com%3A1337","udp%3A%2F%2Ftracker.coppersurfer.tk%3A6969","udp%3A%2F%2Fexodus.desync.com%3A6969"],"infoHash":"3bd54d6dbfc5f123c1f65fc033b22e5a0532798f","infoHashBuffer":{"type":"Buffer","data":[59,213,77,109,191,197,241,35,193,246,95,192,51,178,46,90,5,50,121,143]},"announce":[],"urlList":[]}}